<?xml version="1.0" standalone="no"?>
<!DOCTYPE svg PUBLIC "-//W3C//DTD SVG 20010904//EN"
 "http://www.w3.org/TR/2001/REC-SVG-20010904/DTD/svg10.dtd">
<svg version="1.0" xmlns="http://www.w3.org/2000/svg"
 width="1536.000000pt" height="1024.000000pt" viewBox="0 0 1536.000000 1024.000000"
 preserveAspectRatio="xMidYMid meet">

<g transform="translate(0.000000,1024.000000) scale(0.100000,-0.100000)"
fill="#000000" stroke="none">
<path d="M0 5120 l0 -5120 7680 0 7680 0 0 5120 0 5120 -7680 0 -7680 0 0
-5120z m4706 982 c342 -87 746 -400 1004 -777 103 -152 102 -228 -7 -388 -193
-284 -505 -552 -785 -675 -427 -187 -855 -135 -1244 150 -159 118 -483 481
-554 622 -38 76 -38 118 1 192 79 152 340 450 523 598 187 151 396 255 585
291 112 21 370 14 477 -13z m3509 -363 c165 -30 285 -137 289 -258 l1 -46
-102 -3 -102 -3 -14 33 c-26 61 -91 97 -177 98 -106 0 -169 -39 -177 -111 -11
-97 36 -131 257 -189 199 -51 271 -94 325 -191 27 -49 30 -63 30 -144 0 -84
-2 -94 -36 -155 -68 -125 -176 -179 -369 -187 -188 -8 -307 31 -396 130 -46
52 -78 133 -72 184 l3 28 113 3 c102 2 112 1 112 -15 0 -33 39 -82 82 -104 60
-32 208 -38 257 -12 49 25 72 62 73 112 1 77 -34 99 -272 171 -136 42 -195 69
-247 114 -155 136 -118 407 70 502 95 49 232 65 352 43z m1202 -24 c186 -59
325 -218 368 -420 69 -325 -112 -628 -416 -700 -82 -19 -226 -19 -308 0 -146
35 -277 135 -345 264 -49 95 -65 150 -73 252 -10 151 35 316 116 424 77 102
222 183 365 205 77 13 212 1 293 -25z m-3064 3 c9 -8 75 -189 153 -418 75
-223 139 -411 143 -418 4 -7 46 104 94 245 121 355 187 543 204 576 l14 27
114 0 c63 0 115 -2 115 -4 0 -2 -18 -52 -41 -112 -23 -60 -69 -190 -104 -289
-118 -336 -243 -682 -254 -704 -11 -20 -19 -21 -135 -21 -104 0 -125 3 -139
18 -18 20 -28 47 -182 491 -64 184 -138 395 -166 470 -27 74 -49 139 -49 143
0 14 214 9 233 -4z m1185 -555 l2 -563 -115 0 -115 0 0 559 c0 438 3 560 13
565 6 2 57 4 112 3 l100 -2 3 -562z m2912 557 c106 -14 208 -65 260 -132 113
-142 100 -349 -29 -479 -31 -31 -73 -62 -94 -70 -20 -7 -37 -16 -37 -19 0 -3
63 -98 139 -210 l140 -205 -127 -3 c-69 -1 -132 0 -139 2 -7 3 -70 91 -139
196 l-126 190 -64 0 -64 0 0 -183 c0 -129 -4 -187 -12 -195 -8 -8 -47 -12
-110 -12 -86 0 -98 2 -108 19 -11 22 -15 1093 -3 1104 10 11 428 8 513 -3z
m1183 -120 c116 -293 387 -992 387 -997 0 -2 -54 -3 -120 -3 -140 0 -126 -11
-185 148 l-38 102 -207 0 c-154 0 -210 -3 -217 -12 -6 -7 -23 -50 -38 -96 -16
-46 -37 -96 -47 -112 l-18 -30 -120 0 c-66 0 -120 2 -120 4 0 2 38 102 85 222
47 121 145 373 217 562 l133 343 119 -3 120 -3 49 -125z"/>
<path d="M4340 5899 c-136 -14 -296 -75 -448 -173 -139 -89 -263 -207 -472
-451 -141 -164 -130 -154 -130 -125 0 13 3 20 6 17 7 -7 64 60 64 74 0 4 -5
11 -12 15 -7 5 -9 2 -5 -9 6 -15 -20 -34 -31 -22 -3 3 0 5 6 5 7 0 12 9 12 21
0 11 -5 17 -10 14 -6 -4 -8 -11 -4 -16 7 -13 -19 -7 -28 6 -5 6 -8 5 -8 -2 0
-7 -5 -13 -11 -13 -6 0 -9 6 -6 14 3 8 3 17 -1 19 -4 2 -2 2 5 1 6 -2 14 3 17
11 3 10 -1 12 -17 9 -12 -3 -29 -6 -37 -7 -8 -1 -20 -13 -26 -26 -11 -23 -11
-23 -17 -2 -3 11 -1 19 4 15 5 -3 9 0 9 5 0 6 -4 11 -9 11 -32 0 -94 -121 -89
-172 l3 -33 70 -2 c88 -2 115 3 115 22 0 28 15 14 95 -88 109 -138 342 -371
438 -436 319 -217 634 -257 959 -124 126 52 208 99 329 189 159 119 349 312
434 442 23 35 26 47 18 65 -20 44 -170 223 -270 322 -312 313 -633 455 -953
424z m254 -289 c211 -72 346 -254 346 -464 0 -282 -216 -496 -500 -496 -142 0
-247 41 -347 134 -210 195 -217 498 -18 702 66 67 171 125 260 143 70 14 189
6 259 -19z m-1414 -380 c0 -5 -5 -10 -11 -10 -5 0 -7 5 -4 10 3 6 8 10 11 10
2 0 4 -4 4 -10z m120 -35 c0 -12 -19 -12 -23 0 -4 9 -1 12 9 8 7 -3 14 -7 14
-8z"/>
<path d="M4358 5407 c-128 -37 -208 -140 -208 -270 0 -107 57 -194 163 -249
65 -34 184 -32 253 4 58 30 119 94 141 147 18 43 19 133 2 191 -16 53 -87 132
-142 159 -56 27 -148 35 -209 18z"/>
<path d="M3200 5319 c0 -22 27 -32 34 -13 4 10 2 12 -6 8 -7 -5 -9 -2 -6 8 4
9 0 15 -8 15 -8 0 -14 -8 -14 -18z"/>
<path d="M3290 5270 c0 -5 5 -10 10 -10 6 0 10 5 10 10 0 6 -4 10 -10 10 -5 0
-10 -4 -10 -10z"/>
<path d="M9143 5520 c-101 -21 -186 -89 -229 -182 -36 -79 -45 -214 -20 -300
43 -148 164 -239 321 -241 138 -2 249 62 304 175 99 201 36 431 -142 517 -69
34 -163 46 -234 31z"/>
<path d="M10178 5524 c-5 -4 -8 -81 -8 -170 l0 -164 28 -7 c15 -3 75 -2 134 4
120 12 159 29 196 84 20 29 23 44 20 96 -7 119 -59 154 -242 161 -66 2 -124 1
-128 -4z"/>
<path d="M11392 5247 c-40 -106 -72 -195 -72 -199 0 -9 290 -11 290 -2 0 8
-130 364 -139 381 -3 7 -39 -74 -79 -180z"/>
</g>
</svg>
